<svg width="97" height="57" viewBox="0 0 97 57" fill="none" xmlns="http://www.w3.org/2000/svg">
<path d="M5.02927 37.964V50H1.25527V37.964H5.02927ZM18.2768 50H14.5028L10.5078 43.948V50H6.73379V37.964H10.5078L14.5028 44.118V37.964H18.2768V50ZM27.3598 42.078C27.2125 41.84 27.0028 41.6587 26.7308 41.534C26.4588 41.398 26.1302 41.33 25.7448 41.33C25.0195 41.33 24.4585 41.568 24.0618 42.044C23.6652 42.5087 23.4668 43.149 23.4668 43.965C23.4668 44.9057 23.6878 45.6083 24.1298 46.073C24.5718 46.5377 25.2518 46.77 26.1698 46.77C27.0425 46.77 27.7452 46.4187 28.2778 45.716H25.2688V43.047H31.4058V46.821C30.8845 47.7163 30.1648 48.487 29.2468 49.133C28.3288 49.7677 27.1672 50.085 25.7618 50.085C24.5152 50.085 23.4272 49.83 22.4978 49.32C21.5798 48.7987 20.8715 48.0733 20.3728 47.144C19.8855 46.2147 19.6418 45.155 19.6418 43.965C19.6418 42.775 19.8855 41.7153 20.3728 40.786C20.8715 39.8567 21.5798 39.137 22.4978 38.627C23.4158 38.1057 24.4925 37.845 25.7278 37.845C27.3032 37.845 28.5838 38.2247 29.5698 38.984C30.5672 39.7433 31.1565 40.7747 31.3378 42.078H27.3598ZM38.817 50L36.556 45.682H36.539V50H32.765V37.964H38.375C39.3497 37.964 40.1827 38.1397 40.874 38.491C41.5654 38.831 42.081 39.3013 42.421 39.902C42.7724 40.4913 42.948 41.16 42.948 41.908C42.948 42.7127 42.7214 43.4267 42.268 44.05C41.826 44.6733 41.1857 45.121 40.347 45.393L42.965 50H38.817ZM36.539 43.166H38.035C38.3977 43.166 38.6697 43.0867 38.851 42.928C39.0324 42.758 39.123 42.4973 39.123 42.146C39.123 41.8287 39.0267 41.5793 38.834 41.398C38.6527 41.2167 38.3864 41.126 38.035 41.126H36.539V43.166ZM47.9277 40.973V42.452H51.6677V45.291H47.9277V46.991H52.1777V50H44.1537V37.964H52.1777V40.973H47.9277Z" fill="white"/>
<path d="M58.309 50.119C56.8697 50.119 55.6797 49.7847 54.739 49.116C53.8097 48.436 53.3053 47.4443 53.226 46.141H57.238C57.2947 46.8323 57.6007 47.178 58.156 47.178C58.36 47.178 58.53 47.1327 58.666 47.042C58.8133 46.94 58.887 46.787 58.887 46.583C58.887 46.2997 58.734 46.073 58.428 45.903C58.122 45.7217 57.646 45.5177 57 45.291C56.2293 45.019 55.589 44.7527 55.079 44.492C54.5803 44.2313 54.1497 43.8517 53.787 43.353C53.4243 42.8543 53.2487 42.214 53.26 41.432C53.26 40.65 53.4583 39.987 53.855 39.443C54.263 38.8877 54.8127 38.4683 55.504 38.185C56.2067 37.9017 56.9943 37.76 57.867 37.76C59.3403 37.76 60.5077 38.1 61.369 38.78C62.2417 39.46 62.7007 40.4177 62.746 41.653H58.683C58.6717 41.313 58.5867 41.0693 58.428 40.922C58.2693 40.7747 58.0767 40.701 57.85 40.701C57.6913 40.701 57.561 40.7577 57.459 40.871C57.357 40.973 57.306 41.1203 57.306 41.313C57.306 41.585 57.4533 41.8117 57.748 41.993C58.054 42.163 58.5357 42.3727 59.193 42.622C59.9523 42.9053 60.5757 43.1773 61.063 43.438C61.5617 43.6987 61.9923 44.0613 62.355 44.526C62.7177 44.9907 62.899 45.5743 62.899 46.277C62.899 47.0137 62.7177 47.6767 62.355 48.266C61.9923 48.844 61.4653 49.2973 60.774 49.626C60.0827 49.9547 59.261 50.119 58.309 50.119ZM68.934 50.119C67.4947 50.119 66.3047 49.7847 65.364 49.116C64.4347 48.436 63.9303 47.4443 63.851 46.141H67.863C67.9197 46.8323 68.2257 47.178 68.781 47.178C68.985 47.178 69.155 47.1327 69.291 47.042C69.4383 46.94 69.512 46.787 69.512 46.583C69.512 46.2997 69.359 46.073 69.053 45.903C68.747 45.7217 68.271 45.5177 67.625 45.291C66.8543 45.019 66.214 44.7527 65.704 44.492C65.2053 44.2313 64.7747 43.8517 64.412 43.353C64.0493 42.8543 63.8737 42.214 63.885 41.432C63.885 40.65 64.0833 39.987 64.48 39.443C64.888 38.8877 65.4377 38.4683 66.129 38.185C66.8317 37.9017 67.6193 37.76 68.492 37.76C69.9653 37.76 71.1327 38.1 71.994 38.78C72.8667 39.46 73.3257 40.4177 73.371 41.653H69.308C69.2967 41.313 69.2117 41.0693 69.053 40.922C68.8943 40.7747 68.7017 40.701 68.475 40.701C68.3163 40.701 68.186 40.7577 68.084 40.871C67.982 40.973 67.931 41.1203 67.931 41.313C67.931 41.585 68.0783 41.8117 68.373 41.993C68.679 42.163 69.1607 42.3727 69.818 42.622C70.5773 42.9053 71.2007 43.1773 71.688 43.438C72.1867 43.6987 72.6173 44.0613 72.98 44.526C73.3427 44.9907 73.524 45.5743 73.524 46.277C73.524 47.0137 73.3427 47.6767 72.98 48.266C72.6173 48.844 72.0903 49.2973 71.399 49.626C70.7077 49.9547 69.886 50.119 68.934 50.119ZM82.568 48.181H78.556L77.961 50H74L78.403 37.964H82.755L87.141 50H83.163L82.568 48.181ZM81.65 45.342L80.562 41.993L79.474 45.342H81.65ZM91.7724 40.973V42.452H95.5124V45.291H91.7724V46.991H96.0224V50H87.9984V37.964H96.0224V40.973H91.7724ZM91.9424 35.941L89.1204 37.267V34.819L91.9424 33.544L94.7474 34.819V37.267L91.9424 35.941Z" fill="#6CD73A"/>
<g clip-path="url(#clip0_108_2)">
<path d="M69 23.154L66.9295 18.36V18.377C65.8635 18.7 64.818 18.649 63.793 18.241C62.768 17.833 62.0505 17.187 61.661 16.303C61.2715 15.419 61.333 14.552 61.8045 13.702C62.2965 12.852 63.0755 12.274 64.162 11.951V11.934L62.0915 7.13999L31.2185 16.286L33.248 21.029C34.314 20.706 35.3595 20.757 36.3845 21.165C37.4095 21.556 38.1065 22.202 38.496 23.086C38.8855 23.97 38.824 24.837 38.332 25.687C38.1078 26.0912 37.7868 26.4533 37.3886 26.7514C36.9904 27.0495 36.5232 27.2773 36.0155 27.421L38.1065 32.3L69 23.154ZM58.8115 13.481L61.62 19.873C61.866 20.4 61.825 20.978 61.538 21.488C61.251 21.998 60.7385 22.389 60.103 22.593L44.687 27.234C43.375 27.625 41.8785 27.03 41.407 25.976L38.5985 19.584C38.1065 18.479 38.8035 17.255 40.1155 16.864L55.5315 12.206C55.8185 12.121 56.1055 12.07 56.413 12.07C57.479 12.07 58.463 12.631 58.8115 13.481ZM44.3385 26.435L59.734 21.794C60.1235 21.675 60.431 21.437 60.6155 21.131C60.7795 20.825 60.8 20.485 60.6565 20.162L57.848 13.77C57.5815 13.124 56.659 12.767 55.88 13.005L40.4845 17.663C40.1013 17.7781 39.7889 18.0146 39.6159 18.3206C39.4429 18.6267 39.4235 18.9771 39.562 19.295L42.3705 25.687C42.5755 26.18 43.17 26.52 43.8055 26.52C43.99 26.52 44.154 26.486 44.3385 26.435ZM58.3195 5.79699C59.037 5.33799 59.857 5.09999 60.7795 5.09999H60.8V-1.14441e-05H28V5.03199C29.1275 5.03199 30.1115 5.37199 30.8905 6.03499C31.69 6.68099 32.1 7.49699 32.1 8.43199C32.1 9.36699 31.69 10.166 30.8905 10.829C30.091 11.492 29.1275 11.832 28 11.832V17H30.1525L29.5785 15.64L35.462 13.906C34.4165 13.634 33.6375 12.852 33.6375 11.9V5.09999C33.6375 3.92699 34.7855 2.97499 36.2 2.97499H52.6C54.0145 2.97499 55.1625 3.92699 55.1625 5.09999V8.07499L56.864 7.56499C57.11 6.83399 57.602 6.23899 58.3195 5.79699ZM34.6625 5.09999V11.9C34.6625 12.597 35.3595 13.175 36.2 13.175H37.9015L54.1375 8.36399V5.09999C54.1375 4.40299 53.4405 3.82499 52.6 3.82499H36.2C35.3595 3.82499 34.6625 4.40299 34.6625 5.09999Z" fill="white"/>
</g>
<defs>
<clipPath id="clip0_108_2">
<rect width="41" height="34" fill="white" transform="translate(31)"/>
</clipPath>
</defs>
</svg>
